<svg version="1.1" xmlns="http://www.w3.org/2000/svg" viewBox="0 0 957.6067251461986 980.4415204678362" width="957.6067251461986" height="980.4415204678362">
  <!-- svg-source:excalidraw -->
  
  <defs>
    <style>
      @font-face {
        font-family: "Virgil";
        src: url("https://excalidraw.com/Virgil.woff2");
      }
      @font-face {
        font-family: "Cascadia";
        src: url("https://excalidraw.com/Cascadia.woff2");
      }
    </style>
  </defs>
  <rect x="0" y="0" width="957.6067251461986" height="980.4415204678362" fill="#ffffff"></rect><g stroke-linecap="round" transform="translate(418.75 58) rotate(0 75 100)"><path d="M1.64 1.48 C58.31 0.17, 117.16 -0.65, 149.93 1.54 M-0.13 -0.07 C34.87 -1.25, 70.07 -0.07, 149.32 0.84 M149.11 -0.97 C149.58 77.91, 150.56 156.57, 150.82 199.72 M150.17 -0.61 C147.93 53.34, 148.89 105.85, 150 199.25 M151.76 198.27 C111.55 200.35, 69 201.9, -0.08 200.88 M149.03 200.23 C99.14 198.55, 45.86 197.94, -0.14 199.72 M-0.71 199.94 C2.52 156.04, -0.69 108.54, -1.49 0.74 M-0.29 200.83 C1.31 141.67, -0.22 84.11, 0.8 -0.05" stroke="#1864ab" stroke-width="1" fill="none"></path></g><g stroke-linecap="round" transform="translate(234.75 521) rotate(0 131.5 185)"><path d="M-1.49 -0.98 C104.64 -0.35, 209.16 -1.1, 261.43 1.57 M0.13 0.13 C102.25 1.32, 204.53 1.37, 263.47 0.57 M261.87 1.13 C264.94 139.74, 263.41 278.32, 263.2 370.44 M262.72 0.31 C263.17 147.82, 263.01 295.35, 262.48 369.83 M261.56 370.15 C206.29 370.46, 150.84 369.69, 0.74 370.6 M263.29 369.85 C175.87 369.23, 89.2 370.59, 0.59 370.2 M-0.65 370.84 C0.33 228.38, 1.13 83.99, 1.01 -0.08 M-0.04 369.43 C2.02 233.55, 1.57 97.42, 0.53 0.57" stroke="#000000" stroke-width="1" fill="none"></path></g><g stroke-linecap="round" transform="translate(590 60) rotate(0 75 198.5)"><path d="M0.64 -0.01 C38.19 -1.72, 81.49 -1.22, 151.76 -1.73 M1 -0.04 C59.08 0.8, 116.31 -0.39, 149.03 0.23 M148.92 -0.16 C148.93 151.37, 148.72 303.77, 149.55 396.96 M149.55 -0.47 C151.58 156.23, 151.15 313.07, 149.82 397.53 M148.18 398.79 C93.41 393.74, 38.79 394.03, -0.31 397.13 M150.24 396.35 C99.1 397.38, 49 396.31, -0.13 396.3 M0.1 396.38 C1.7 273.13, 2.35 147.72, -0.18 -0.15 M-0.25 397.5 C-2.07 314.79, -2.14 233.5, 0.14 -0.29" stroke="#c92a2a" stroke-width="1" fill="none"></path></g><g stroke-linecap="round" transform="translate(10 72.75) rotate(0 75 100)"><path d="M1.16 -1.74 C57.43 0.86, 116.91 -1.29, 149.58 -1.93 M0.05 -0.2 C54.56 0.61, 109.42 -0.19, 149.52 0.41 M148.97 -1.55 C148.08 69.66, 149.32 134.61, 149.59 200.97 M149.13 0.87 C150.2 72.62, 149.46 146.58, 150.79 199.51 M149.78 198.11 C109.33 200.58, 66.4 198.51, 0.69 201.59 M149.1 199.36 C98.48 199.61, 48.07 200.62, -0.82 199 M0.38 198.4 C-0.14 151.84, -0.53 107.6, -0.33 -0.32 M0.68 200.74 C-1 123.69, -1.03 48.89, 0.57 -0.16" stroke="#000000" stroke-width="1" fill="none"></path></g><g transform="translate(27.75 86.5) rotate(0 24 12.5)"><text x="0" y="20" font-family="Cascadia, Segoe UI Emoji" font-size="20px" fill="#000000" text-anchor="start" style="white-space: pre;" direction="ltr">yaml</text></g><g stroke-linecap="round"><g transform="translate(180 169.22924728945605) rotate(0 106.16943974383179 0.15038439229240907)"><path d="M-0.71 -0.24 C34.98 0.17, 177.57 1.75, 213.05 1.71 M1.12 -1.41 C36.73 -1.25, 176.48 -0.17, 212.05 0.1" stroke="#000000" stroke-width="1" fill="none"></path></g><g transform="translate(180 169.22924728945605) rotate(0 106.16943974383179 0.15038439229240907)"><path d="M183.38 9.98 C191.4 6.56, 193.72 4.77, 212.64 1.79 M183.01 10.14 C193.59 6.68, 201.85 4.42, 213.03 -0.71" stroke="#000000" stroke-width="1" fill="none"></path></g><g transform="translate(180 169.22924728945605) rotate(0 106.16943974383179 0.15038439229240907)"><path d="M183.54 -10.54 C191.39 -9.66, 193.68 -7.13, 212.64 1.79 M183.17 -10.38 C193.51 -7.26, 201.72 -2.93, 213.03 -0.71" stroke="#000000" stroke-width="1" fill="none"></path></g></g><g stroke-linecap="round"><g transform="translate(143.58333333333348 513.956019252809) rotate(0 53.447703888883666 12.888447351009404)"><path d="M1.12 0.85 C18.82 4.66, 89.19 19.96, 106.64 23.91 M0.25 0.26 C17.82 4.79, 88.66 21.8, 106.12 25.52" stroke="#000000" stroke-width="1" fill="none"></path></g><g transform="translate(143.58333333333348 513.956019252809) rotate(0 53.447703888883666 12.888447351009404)"><path d="M77.78 30.6 C86.66 27.7, 97.75 27.42, 104.86 24.86 M76.22 29.54 C83.48 28.21, 90.38 27.13, 105.84 25.14" stroke="#000000" stroke-width="1" fill="none"></path></g><g transform="translate(143.58333333333348 513.956019252809) rotate(0 53.447703888883666 12.888447351009404)"><path d="M82.36 10.59 C89.87 14.52, 99.41 21.02, 104.86 24.86 M80.8 9.53 C86.84 13.22, 92.61 17.12, 105.84 25.14" stroke="#000000" stroke-width="1" fill="none"></path></g></g><g stroke-linecap="round"><g transform="translate(606.6377482228056 723.9678244651452) rotate(0 -63.08909508513136 37.89750340653211)"><path d="M0.46 0.85 C-20.44 13.25, -104.75 61.93, -126.06 74.41 M-0.76 0.26 C-21.7 12.78, -105.34 63.29, -126.63 75.54" stroke="#000000" stroke-width="1" fill="none"></path></g><g transform="translate(606.6377482228056 723.9678244651452) rotate(0 -63.08909508513136 37.89750340653211)"><path d="M-106.17 53.55 C-113.55 57.01, -115.96 63.72, -124.94 74.61 M-108.4 51.59 C-112.76 58.65, -117.42 65.41, -126.06 76.44" stroke="#000000" stroke-width="1" fill="none"></path></g><g transform="translate(606.6377482228056 723.9678244651452) rotate(0 -63.08909508513136 37.89750340653211)"><path d="M-95.72 71.21 C-105.67 70.39, -110.63 72.78, -124.94 74.61 M-97.95 69.25 C-105.32 71.34, -112.89 73.18, -126.06 76.44" stroke="#000000" stroke-width="1" fill="none"></path></g></g><g stroke-linecap="round"><g transform="translate(460.4732028847229 463.7817330690908) rotate(0 7.43676907456404 36.105298951939005)"><path d="M0.67 0.56 C3.35 12.82, 12.73 60.45, 15.31 72.4 M-0.44 -0.19 C2.14 11.79, 11.58 58.1, 14.29 70.39" stroke="#000000" stroke-width="1" fill="none"></path></g><g transform="translate(460.4732028847229 463.7817330690908) rotate(0 7.43676907456404 36.105298951939005)"><path d="M-0.64 44.68 C2.28 52.05, 5.73 56.14, 12.7 70.8 M-1.39 45.24 C3.66 53.01, 9.55 62.48, 14.59 70.18" stroke="#000000" stroke-width="1" fill="none"></path></g><g transform="translate(460.4732028847229 463.7817330690908) rotate(0 7.43676907456404 36.105298951939005)"><path d="M19.44 40.44 C17.59 48.92, 16.31 54.01, 12.7 70.8 M18.68 41 C16.81 50.34, 15.74 61.28, 14.59 70.18" stroke="#000000" stroke-width="1" fill="none"></path></g></g><g stroke-linecap="round"><g transform="translate(541.6708427133881 909.586446567881) rotate(0 -46.211068264518644 -27.165372090469873)"><path d="M1.03 0.4 C-14.43 -8.56, -76.98 -45.86, -92.84 -54.73 M0.11 -0.43 C-15.44 -9.19, -77.56 -44.66, -93.45 -53.71" stroke="#000000" stroke-width="1" fill="none"></path></g><g transform="translate(541.6708427133881 909.586446567881) rotate(0 -46.211068264518644 -27.165372090469873)"><path d="M-63.21 -47.6 C-74.16 -50.97, -79.69 -53.35, -93.15 -53.53 M-63.63 -49.39 C-76.03 -49.69, -86.14 -51.31, -93.03 -53.58" stroke="#000000" stroke-width="1" fill="none"></path></g><g transform="translate(541.6708427133881 909.586446567881) rotate(0 -46.211068264518644 -27.165372090469873)"><path d="M-73.38 -29.77 C-81.18 -38.47, -83.73 -46.09, -93.15 -53.53 M-73.79 -31.56 C-82.31 -38.7, -88.57 -47.06, -93.03 -53.58" stroke="#000000" stroke-width="1" fill="none"></path></g></g><g transform="translate(457.75 10) rotate(0 42.5 13)"><text x="0" y="18" font-family="Virgil, Segoe UI Emoji" font-size="20px" fill="#000000" text-anchor="start" style="white-space: pre;" direction="ltr">one-page</text></g><g transform="translate(606.75 11) rotate(0 16.5 13)"><text x="0" y="18" font-family="Virgil, Segoe UI Emoji" font-size="20px" fill="#000000" text-anchor="start" style="white-space: pre;" direction="ltr">full</text></g><g stroke-linecap="round" transform="translate(444.27631578947353 540.6842105263158) rotate(0 18 18)"><path d="M16.75 0.77 C20.52 0.57, 26.17 1.68, 29.24 3.85 C32.32 6.02, 34.42 10.03, 35.18 13.8 C35.94 17.57, 35.49 22.81, 33.79 26.46 C32.1 30.1, 28.41 34.31, 24.99 35.68 C21.56 37.05, 17.08 36.21, 13.23 34.68 C9.39 33.15, 3.97 29.81, 1.9 26.48 C-0.17 23.16, 0.05 18.37, 0.82 14.73 C1.6 11.09, 2.86 7.16, 6.57 4.65 C10.27 2.14, 19.76 0.14, 23.03 -0.33 C26.31 -0.8, 26.34 1.32, 26.21 1.83 M19.02 -1.22 C22.83 -1.79, 27.22 0.56, 30.14 3.44 C33.05 6.31, 35.98 11.85, 36.51 16.02 C37.03 20.18, 35.19 25.49, 33.29 28.42 C31.39 31.36, 28.72 32.56, 25.11 33.64 C21.49 34.71, 15.56 36.02, 11.61 34.88 C7.67 33.73, 3.12 30.28, 1.45 26.77 C-0.23 23.26, 0.6 17.76, 1.56 13.82 C2.52 9.88, 4.55 5.56, 7.2 3.11 C9.86 0.67, 15.81 -0.51, 17.49 -0.85 C19.17 -1.19, 17.23 0.49, 17.27 1.06" stroke="#000000" stroke-width="1" fill="none"></path></g><g transform="translate(456.22368421052624 552.1052631578948) rotate(0 0.00004999999998744897 0.00004999999998744897)" stroke="none"><path fill="#000000" d="M 1.57,-1.57 Q 1.57,-1.57 1.77,-1.27 1.98,-0.98 2.09,-0.64 2.20,-0.29 2.19,0.05 2.18,0.41 2.05,0.75 1.93,1.09 1.70,1.37 1.48,1.65 1.18,1.84 0.87,2.04 0.52,2.12 0.18,2.21 -0.17,2.18 -0.53,2.15 -0.86,2.01 -1.19,1.87 -1.46,1.63 -1.73,1.39 -1.90,1.07 -2.08,0.76 -2.15,0.41 -2.21,0.05 -2.17,-0.29 -2.12,-0.65 -1.96,-0.97 -1.80,-1.29 -1.54,-1.54 -1.29,-1.80 -0.97,-1.96 -0.65,-2.12 -0.29,-2.17 0.06,-2.21 0.41,-2.15 0.76,-2.08 1.07,-1.90 1.39,-1.73 1.63,-1.46 1.87,-1.19 2.01,-0.86 2.15,-0.53 2.18,-0.17 2.21,0.18 2.12,0.52 2.03,0.87 1.84,1.18 1.65,1.48 1.37,1.70 1.09,1.93 0.75,2.05 0.41,2.18 0.05,2.19 -0.30,2.20 -0.64,2.09 -0.98,1.98 -1.27,1.77 -1.57,1.56 -1.57,1.57 -1.57,1.57 -1.73,1.35 -1.90,1.14 -2.01,0.90 -2.12,0.66 -2.16,0.39 -2.21,0.13 -2.20,-0.13 -2.18,-0.40 -2.10,-0.65 -2.02,-0.91 -1.88,-1.14 -1.74,-1.36 -1.55,-1.55 -1.36,-1.74 -1.14,-1.88 -0.91,-2.02 -0.65,-2.10 -0.40,-2.18 -0.13,-2.20 0.13,-2.21 0.39,-2.16 0.66,-2.12 0.90,-2.01 1.14,-1.90 1.35,-1.73 1.57,-1.57 1.57,-1.57 L 1.57,-1.57 Z"></path></g><g transform="translate(466.22368421052624 552.1052631578948) rotate(0 0.00004999999998744897 0.00004999999998744897)" stroke="none"><path fill="#000000" d="M 1.57,-1.57 Q 1.57,-1.57 1.77,-1.27 1.98,-0.98 2.09,-0.64 2.20,-0.29 2.19,0.05 2.18,0.41 2.05,0.75 1.93,1.09 1.70,1.37 1.48,1.65 1.18,1.84 0.87,2.04 0.52,2.12 0.18,2.21 -0.17,2.18 -0.53,2.15 -0.86,2.01 -1.19,1.87 -1.46,1.63 -1.73,1.39 -1.90,1.07 -2.08,0.76 -2.15,0.41 -2.21,0.05 -2.17,-0.29 -2.12,-0.65 -1.96,-0.97 -1.80,-1.29 -1.54,-1.54 -1.29,-1.80 -0.97,-1.96 -0.65,-2.12 -0.29,-2.17 0.06,-2.21 0.41,-2.15 0.76,-2.08 1.07,-1.90 1.39,-1.73 1.63,-1.46 1.87,-1.19 2.01,-0.86 2.15,-0.53 2.18,-0.17 2.21,0.18 2.12,0.52 2.03,0.87 1.84,1.18 1.65,1.48 1.37,1.70 1.09,1.93 0.75,2.05 0.41,2.18 0.05,2.19 -0.30,2.20 -0.64,2.09 -0.98,1.98 -1.27,1.77 -1.57,1.56 -1.57,1.57 -1.57,1.57 -1.73,1.35 -1.90,1.14 -2.01,0.90 -2.12,0.66 -2.16,0.39 -2.21,0.13 -2.20,-0.13 -2.18,-0.40 -2.10,-0.65 -2.02,-0.91 -1.88,-1.14 -1.74,-1.36 -1.55,-1.55 -1.36,-1.74 -1.14,-1.88 -0.91,-2.02 -0.65,-2.10 -0.40,-2.18 -0.13,-2.20 0.13,-2.21 0.39,-2.16 0.66,-2.12 0.90,-2.01 1.14,-1.90 1.35,-1.73 1.57,-1.57 1.57,-1.57 L 1.57,-1.57 Z"></path></g><g transform="translate(462.22368421052624 561.1052631578948) rotate(0 0.00004999999998744897 0.00004999999998744897)" stroke="none"><path fill="#000000" d="M 1.57,-1.57 Q 1.57,-1.57 1.77,-1.27 1.98,-0.98 2.09,-0.64 2.20,-0.29 2.19,0.05 2.18,0.41 2.05,0.75 1.93,1.09 1.70,1.37 1.48,1.65 1.18,1.84 0.87,2.04 0.52,2.12 0.18,2.21 -0.17,2.18 -0.53,2.15 -0.86,2.01 -1.19,1.87 -1.46,1.63 -1.73,1.39 -1.90,1.07 -2.08,0.76 -2.15,0.41 -2.21,0.05 -2.17,-0.29 -2.12,-0.65 -1.96,-0.97 -1.80,-1.29 -1.54,-1.54 -1.29,-1.80 -0.97,-1.96 -0.65,-2.12 -0.29,-2.17 0.06,-2.21 0.41,-2.15 0.76,-2.08 1.07,-1.90 1.39,-1.73 1.63,-1.46 1.87,-1.19 2.01,-0.86 2.15,-0.53 2.18,-0.17 2.21,0.18 2.12,0.52 2.03,0.87 1.84,1.18 1.65,1.48 1.37,1.70 1.09,1.93 0.75,2.05 0.41,2.18 0.05,2.19 -0.30,2.20 -0.64,2.09 -0.98,1.98 -1.27,1.77 -1.57,1.56 -1.57,1.57 -1.57,1.57 -1.73,1.35 -1.90,1.14 -2.01,0.90 -2.12,0.66 -2.16,0.39 -2.21,0.13 -2.20,-0.13 -2.18,-0.40 -2.10,-0.65 -2.02,-0.91 -1.88,-1.14 -1.74,-1.36 -1.55,-1.55 -1.36,-1.74 -1.14,-1.88 -0.91,-2.02 -0.65,-2.10 -0.40,-2.18 -0.13,-2.20 0.13,-2.21 0.39,-2.16 0.66,-2.12 0.90,-2.01 1.14,-1.90 1.35,-1.73 1.57,-1.57 1.57,-1.57 L 1.57,-1.57 Z"></path></g><g transform="translate(455.22368421052624 564.1052631578948) rotate(0 7 1.5)" stroke="none"><path fill="#000000" d="M 1.18,-2.37 Q 1.18,-2.37 2.32,-1.80 3.47,-1.23 5.27,-0.47 7.08,0.28 8.61,0.12 10.14,-0.02 10.83,0.05 11.53,0.13 11.89,-0.20 12.25,-0.55 12.70,-0.76 13.16,-0.97 13.65,-1.02 14.15,-1.08 14.64,-0.98 15.13,-0.87 15.56,-0.61 15.99,-0.36 16.31,0.01 16.64,0.39 16.82,0.86 17.01,1.32 17.04,1.82 17.07,2.32 16.94,2.80 16.80,3.28 16.53,3.70 16.25,4.11 15.85,4.42 15.45,4.72 14.98,4.88 14.51,5.04 14.01,5.04 13.51,5.05 13.03,4.89 12.56,4.73 12.16,4.43 11.76,4.13 11.48,3.72 11.20,3.30 11.06,2.82 10.92,2.34 10.95,1.84 10.97,1.34 11.16,0.88 11.34,0.41 11.66,0.03 11.99,-0.34 12.41,-0.60 12.84,-0.86 13.33,-0.97 13.82,-1.08 14.31,-1.03 14.81,-0.98 15.26,-0.77 15.72,-0.56 16.08,-0.22 16.45,0.12 16.68,0.56 16.92,1.00 17.00,1.49 17.08,1.98 17.01,2.48 16.93,2.97 16.69,3.41 16.46,3.86 16.46,3.86 16.46,3.86 13.24,4.92 10.02,5.98 8.44,5.88 6.86,5.77 5.27,4.98 3.68,4.20 2.40,3.87 1.12,3.53 -0.02,2.95 -1.18,2.37 -1.45,2.19 -1.71,2.02 -1.93,1.78 -2.15,1.54 -2.30,1.26 -2.46,0.98 -2.54,0.68 -2.62,0.37 -2.63,0.05 -2.63,-0.26 -2.56,-0.57 -2.49,-0.89 -2.35,-1.17 -2.21,-1.46 -2.00,-1.70 -1.79,-1.95 -1.53,-2.13 -1.27,-2.32 -0.98,-2.44 -0.68,-2.56 -0.36,-2.60 -0.05,-2.65 0.26,-2.62 0.58,-2.58 0.88,-2.48 1.18,-2.37 1.18,-2.37 L 1.18,-2.37 Z"></path></g><g stroke-linecap="round" transform="translate(254.75 543) rotate(0 44.5 22.5)"><path d="M0.18 0.15 C18.3 -2.47, 36.18 0.41, 89.05 1.34 M-0.65 -0.37 C22.65 0.25, 44.34 -0.89, 88.77 0.85 M87.85 -1.56 C88.79 10.05, 88.02 23.38, 87.5 44.95 M88.45 -0.3 C87.85 14.31, 88.34 25.69, 89.56 44.53 M89.91 44.07 C59.58 45.7, 30.28 46.9, -1.72 45.17 M88.34 45.44 C68.82 45.25, 50.34 43.81, 0.72 44.99 M0.02 43.51 C1.19 28.28, 0.25 12.47, 0.84 1.96 M-0.8 45.05 C-0.82 32.23, 0.5 17.73, -0.73 -0.56" stroke="#000000" stroke-width="1" fill="none"></path></g><g transform="translate(33.75 474) rotate(0 52.5 39)"><text x="0" y="18" font-family="Virgil, Segoe UI Emoji" font-size="20px" fill="#000000" text-anchor="start" style="white-space: pre;" direction="ltr">Company </text><text x="0" y="44" font-family="Virgil, Segoe UI Emoji" font-size="20px" fill="#000000" text-anchor="start" style="white-space: pre;" direction="ltr">information</text><text x="0" y="70" font-family="Virgil, Segoe UI Emoji" font-size="20px" fill="#000000" text-anchor="start" style="white-space: pre;" direction="ltr">contact</text></g><g transform="translate(617.9166666666665 702.3333333333335) rotate(0 126.5 13)"><text x="0" y="18" font-family="Virgil, Segoe UI Emoji" font-size="20px" fill="#000000" text-anchor="start" style="white-space: pre;" direction="ltr">Limited short descriptions</text></g><g transform="translate(500.4166666666665 914.8333333333335) rotate(0 98 13)"><text x="0" y="18" font-family="Virgil, Segoe UI Emoji" font-size="20px" fill="#000000" text-anchor="start" style="white-space: pre;" direction="ltr">List with titles only</text></g><g transform="translate(419.144736842105 408.1052631578948) rotate(0 41 26)"><text x="0" y="18" font-family="Virgil, Segoe UI Emoji" font-size="20px" fill="#000000" text-anchor="start" style="white-space: pre;" direction="ltr">Image &amp;</text><text x="0" y="44" font-family="Virgil, Segoe UI Emoji" font-size="20px" fill="#000000" text-anchor="start" style="white-space: pre;" direction="ltr">name</text></g><g stroke-linecap="round" transform="translate(304.63596491228077 667.578947368421) rotate(0 10 2.5)"><path d="M0 0 C0 0, 0 0, 0 0 M0 0 C0 0, 0 0, 0 0 M0.77 5.98 C1.61 4.75, 2.3 2.85, 5.19 -0.33 M0.09 5.72 C1.19 4.73, 2.49 3.27, 4.7 0.17 M6.67 5.17 C7.01 3.86, 9.11 2.05, 10.07 -0.11 M6.07 4.91 C7.52 3.55, 9.17 2.01, 10.67 -0.35 M11.66 6.12 C12.91 3.67, 12.79 2.96, 15.22 0.46 M10.87 5.59 C12.68 3.65, 14.38 1.04, 15.8 0.21 M16.23 5.73 C17.04 4.61, 18.19 3.32, 20.41 1.06 M16.7 4.94 C17.71 3.76, 19.48 2.06, 20.52 0.75 M-0.21 4.82 C-0.21 4.82, -0.21 4.82, -0.21 4.82 M-0.21 4.82 C-0.21 4.82, -0.21 4.82, -0.21 4.82 M6.72 5.26 C5.06 3.62, 3.47 2.13, -0.18 -0.33 M6.45 5.46 C4.21 3.91, 2.96 2.33, -0.19 -0.49 M11.27 5.1 C10.02 2.94, 9.4 1.94, 6.86 0.54 M11.62 4.49 C10.53 3.36, 9.23 2.63, 6.89 0.4 M18.24 4.64 C16.57 3.5, 13.52 1.78, 12.71 0.48 M18.14 5.19 C16.76 3.41, 14.79 2.39, 12.15 -0.34 M21.81 2.55 C20.45 1.52, 19.24 0.58, 18.31 -0.22 M21.48 2.74 C20.89 1.78, 20.08 1.26, 18.5 -0.23" stroke="#868e96" stroke-width="0.5" fill="none"></path><path d="M1.2 -0.69 C4.29 0.07, 12.51 0.24, 20.06 -0.05 M0.36 -0.66 C7.53 -1.04, 15.63 -0.74, 19.95 -0.31 M19.72 -0.13 C20.24 1.53, 19.56 3.94, 19.68 5.45 M20 0.12 C19.99 1.18, 20.17 2.55, 19.82 5.22 M20.3 4.02 C14.34 3.19, 12.22 4.15, -1.49 3.47 M19.36 5.84 C16.29 5.56, 11.56 5.36, -0.66 5.8 M-0.17 5.07 C0.11 3.88, 0.09 3.11, 0.49 -0.14 M0.06 4.85 C0.14 4.13, 0.28 2.66, -0.16 -0.1" stroke="#1864ab" stroke-width="1" fill="none"></path></g><g stroke-linecap="round" transform="translate(304.109649122807 693.8947368421053) rotate(0 10 2.5)"><path d="M0 0 C0 0, 0 0, 0 0 M0 0 C0 0, 0 0, 0 0 M-0.21 5 C2.22 3.13, 4.08 2.17, 4.82 0.33 M0.55 5.31 C1.23 4.5, 2.64 2.65, 4.69 0.36 M6.46 5.04 C7.07 3.86, 8.52 3.06, 9.99 -0.61 M6.02 5.49 C7.24 3.55, 9.02 1.89, 10.79 -0.24 M10.48 4.93 C12.62 3.98, 14.32 1.9, 16.29 0.29 M11.35 5.44 C12.83 3.86, 14.63 1.59, 15.71 0.35 M16.48 5.26 C17.69 3.29, 19.42 1.7, 20.72 1.15 M16.82 5.25 C18.1 3.33, 19.27 1.84, 20.69 0.62 M-0.21 4.82 C-0.21 4.82, -0.21 4.82, -0.21 4.82 M-0.21 4.82 C-0.21 4.82, -0.21 4.82, -0.21 4.82 M6.65 4.77 C5.05 4.06, 3.35 1.62, -0.52 0.33 M5.97 4.72 C4.59 3.58, 2.75 2.43, 0.55 -0.45 M11.69 4.49 C9.9 2.58, 7.81 1.29, 6.05 0.06 M11.71 4.91 C10.79 3.47, 8.98 2.38, 6.3 0.13 M17.88 4.65 C16.46 4.36, 15.72 2.43, 12.75 0.36 M18.63 4.67 C16.11 2.88, 14 1.4, 12.19 -0.66 M21.34 2.82 C20.72 1.74, 19.56 1.13, 18.72 -0.16 M21.55 2.41 C20.67 1.91, 19.79 1.08, 18.51 0.13" stroke="#868e96" stroke-width="0.5" fill="none"></path><path d="M-1.75 0.89 C5.51 -1.35, 11.07 -1.39, 20.44 -0.31 M0.59 0.52 C5.12 -0.82, 10.26 -0.82, 19.9 0.65 M20.05 0.08 C20.46 1.81, 19.87 2.24, 19.61 5.37 M20.22 0.24 C19.8 1.46, 19.87 3.22, 19.86 5.18 M21.36 4.68 C14.16 6.46, 6.56 5.01, 0.82 4.93 M19.3 4.64 C14.91 3.99, 9.31 4.64, 0.36 5.57 M0.4 4.59 C0.05 3.37, -0.52 1.18, 0.27 -0.47 M0.24 4.93 C0.09 3.73, -0.15 2.87, 0.17 -0.16" stroke="#1864ab" stroke-width="1" fill="none"></path></g><g stroke-linecap="round" transform="translate(303.5833333333335 680.7368421052631) rotate(0 5.526315789473642 2.236842105263179)"><path d="M0 0 C0 0, 0 0, 0 0 M0 0 C0 0, 0 0, 0 0 M0.68 5.43 C1.95 3.44, 3.12 2.95, 4.94 -0.12 M1.06 4.92 C1.89 3.56, 3.33 2.39, 5.16 0.4 M5.53 5.89 C7.53 4.83, 7.38 2.42, 10.7 -0.43 M6.02 5.1 C7.43 3.38, 9.07 1.56, 10.29 0.15 M0.05 4.52 C0.05 4.52, 0.05 4.52, 0.05 4.52 M0.05 4.52 C0.05 4.52, 0.05 4.52, 0.05 4.52 M5.98 4.75 C4.52 2.72, 1.95 0.65, 0.68 -0.57 M6.42 5.01 C4.11 2.74, 2.25 0.63, 0.58 -0.31 M11.37 4.12 C9.76 2.42, 7.68 0.75, 6.4 -0.46 M11.57 3.93 C10.36 2.38, 8.96 1.56, 6.84 -0.47" stroke="#868e96" stroke-width="0.5" fill="none"></path><path d="M-1.07 -0.62 C2.69 0.53, 4.91 -0.96, 10.97 -0.72 M-0.08 -0.01 C4.57 -0.22, 8.64 0.16, 11.51 -0.41 M10.92 0.07 C10.8 1.45, 10.62 3.68, 10.88 4.14 M11.02 -0.14 C11.21 1.17, 11.15 2.11, 11.14 4.33 M11.77 4.09 C7.01 4.68, 2.76 4.64, 1 5.55 M11.46 4.6 C7.7 4.61, 5.51 4.93, -0.36 4.13 M0.32 4.45 C-0.05 3.26, 0.31 2.08, 0.01 0.33 M-0.01 4.42 C0.01 3.42, -0.16 2.45, 0.09 -0.21" stroke="#1864ab" stroke-width="1" fill="none"></path></g><g transform="translate(258.17105263157896 608.6228070175439) rotate(0 31.5 17)"><text x="0" y="12" font-family="Virgil, Segoe UI Emoji" font-size="12.695156695156687px" fill="#1864ab" text-anchor="start" style="white-space: pre;" direction="ltr">Technical </text><text x="0" y="29" font-family="Virgil, Segoe UI Emoji" font-size="12.695156695156687px" fill="#1864ab" text-anchor="start" style="white-space: pre;" direction="ltr">skills</text></g><g transform="translate(355.67105263157896 611.9561403508773) rotate(0 26.5 8.5)"><text x="0" y="12" font-family="Virgil, Segoe UI Emoji" font-size="12.695156695156687px" fill="#1864ab" text-anchor="start" style="white-space: pre;" direction="ltr">Personal</text></g><g transform="translate(256.5043859649122 761.9561403508774) rotate(0 32.5 8.5)"><text x="0" y="12" font-family="Virgil, Segoe UI Emoji" font-size="12.695156695156687px" fill="#1864ab" text-anchor="start" style="white-space: pre;" direction="ltr">Languages</text></g><g transform="translate(255.67105263157873 822.7894736842104) rotate(0 31 8.5)"><text x="0" y="12" font-family="Virgil, Segoe UI Emoji" font-size="12.695156695156687px" fill="#1864ab" text-anchor="start" style="white-space: pre;" direction="ltr">Education</text></g><g transform="translate(352.3377192982457 687.7894736842106) rotate(0 32 8.5)"><text x="0" y="12" font-family="Virgil, Segoe UI Emoji" font-size="12.695156695156687px" fill="#1864ab" text-anchor="start" style="white-space: pre;" direction="ltr">Experience</text></g><g transform="translate(433.96052631578937 581.3421052631578) rotate(0 24.394736842105317 7.017664023071404)"><text x="0" y="10.035328046142784" font-family="Virgil, Segoe UI Emoji" font-size="10.693583273251646px" fill="#000000" text-anchor="start" style="white-space: pre;" direction="ltr">John Doe</text></g><g stroke-linecap="round"><g transform="translate(357.11842105263145 641) rotate(0 51.62297566678171 -1.2889571972975205)"><path d="M-0.45 -0.48 C16.9 -0.89, 86.22 -1.8, 103.7 -2.1 M1.51 -1.77 C18.69 -2.06, 85.45 -0.92, 102.48 -0.84" stroke="#000000" stroke-width="1" fill="none"></path></g></g><g stroke-linecap="round"><g transform="translate(357.644736842105 653.6315789473683) rotate(0 51.73067107941756 -1.123693854440205)"><path d="M-0.29 -0.23 C16.99 -0.55, 86.37 -1.99, 103.75 -2.02 M1.76 -1.39 C18.83 -1.55, 85.67 -0.6, 102.56 -0.71" stroke="#000000" stroke-width="1" fill="none"></path></g></g><g stroke-linecap="round"><g transform="translate(358.17105263157873 670.4736842105261) rotate(0 52.02890362406879 -1.1678133317122388)"><path d="M0.08 -0.02 C17.41 -0.55, 85.69 -2, 103.21 -2.32 M-1.33 -1.07 C16.43 -1.55, 87.69 -1.21, 105.39 -1.17" stroke="#000000" stroke-width="1" fill="none"></path></g></g><g stroke-linecap="round"><g transform="translate(357.9078947368416 742.7982456140353) rotate(0 51.80297050174124 -0.7582788669357114)"><path d="M-0.36 0.14 C17.17 -0.14, 86.56 -1.36, 103.96 -1.65 M1.65 -0.84 C19.11 -0.92, 85.96 -0.24, 102.89 -0.15" stroke="#000000" stroke-width="1" fill="none"></path></g></g><g stroke-linecap="round"><g transform="translate(359.48684210526267 731.2192982456138) rotate(0 51.44259566712458 -0.9844490119108968)"><path d="M0.14 -0.25 C17.49 -0.47, 86.8 -1.55, 104.14 -1.72 M-1.25 -1.42 C15.93 -1.43, 85.71 -0.53, 103.15 -0.26" stroke="#000000" stroke-width="1" fill="none"></path></g></g><g stroke-linecap="round"><g transform="translate(358.3464912280697 719.2017543859648) rotate(0 17.891124392986967 -0.11688826568871491)"><path d="M-0.25 -0.07 C5.82 -0.2, 29.91 -0.63, 36.03 -0.6 M1.83 -1.16 C7.75 -1.09, 29.34 1.03, 35.01 0.92" stroke="#000000" stroke-width="1" fill="none"></path></g></g><g stroke-linecap="round"><g transform="translate(358.7412280701749 783.6315789473688) rotate(0 51.847945800007096 -1.4493702978087413)"><path d="M0.8 -0.51 C18.27 -0.44, 86.84 -0.72, 103.93 -0.72 M-0.24 -1.83 C17.12 -1.99, 85.17 -2.31, 102.84 -2.4" stroke="#000000" stroke-width="1" fill="none"></path></g></g><g stroke-linecap="round"><g transform="translate(360.3201754385959 772.0526315789475) rotate(0 52.27653445895555 -1.352500172782925)"><path d="M-0.51 -0.28 C17.19 -0.81, 87.44 -2.34, 105.07 -2.43 M1.42 -1.47 C19.14 -1.95, 87.3 -1.13, 104.57 -1.34" stroke="#000000" stroke-width="1" fill="none"></path></g></g><g stroke-linecap="round"><g transform="translate(359.17982456140294 760.0350877192982) rotate(0 18.6561266604175 -0.10222596119808713)"><path d="M-0.28 0.86 C5.48 1.02, 29.12 0.59, 35.32 0.48 M1.78 0.26 C7.84 0.15, 31.78 -0.75, 37.59 -1.1" stroke="#000000" stroke-width="1" fill="none"></path></g></g><g stroke-linecap="round"><g transform="translate(358.7412280701749 821.9649122807023) rotate(0 52.519005326510296 0.07874755807301881)"><path d="M1.14 -0.64 C18.6 -1.03, 87.41 -1.43, 104.76 -1.48 M0.28 1.64 C17.63 1.38, 86.65 0.88, 104.1 0.11" stroke="#000000" stroke-width="1" fill="none"></path></g></g><g stroke-linecap="round"><g transform="translate(360.3201754385959 810.385964912281) rotate(0 51.83411023314841 -0.810016885119694)"><path d="M-0.64 0.55 C16.6 0.26, 86.73 -0.08, 104.31 -0.57 M1.23 -0.21 C18.24 -0.3, 86.22 -1.95, 103.41 -2.17" stroke="#000000" stroke-width="1" fill="none"></path></g></g><g stroke-linecap="round"><g transform="translate(359.17982456140294 798.3684210526317) rotate(0 18.278139353256392 -0.7993660439962014)"><path d="M0.55 0.1 C6.56 0.21, 31.38 0.22, 37.18 0.05 M-0.62 -0.9 C5.22 -1.08, 30.35 -1.93, 36.76 -1.76" stroke="#000000" stroke-width="1" fill="none"></path></g></g><g stroke-linecap="round"><g transform="translate(359.57456140350837 866.1315789473688) rotate(0 36.82630707492376 -0.30823311522294716)"><path d="M1.19 0.19 C13.35 0.1, 61 -0.89, 73.29 -0.94 M0.36 -0.75 C12.29 -0.66, 59.7 -0.02, 72.1 0.33" stroke="#000000" stroke-width="1" fill="none"></path></g></g><g stroke-linecap="round"><g transform="translate(361.1535087719294 855.385964912281) rotate(0 36.42608134737179 -0.8157054730202162)"><path d="M0.19 -0.46 C12.59 -0.64, 61.58 0.12, 74.01 0.12 M-1.16 -1.75 C11.06 -1.72, 60.23 -1.25, 72.8 -1.39" stroke="#000000" stroke-width="1" fill="none"></path></g></g><g stroke-linecap="round" transform="translate(303.5833333333335 656) rotate(0 10 2.5)"><path d="M0 0 C0 0, 0 0, 0 0 M0 0 C0 0, 0 0, 0 0 M0.28 5.66 C2.24 3.52, 3.05 2.86, 4.96 0.19 M0.27 5.79 C1.49 4.17, 3.13 2.56, 5.19 0.55 M5.47 5.35 C7.84 2.68, 8.83 1.91, 9.97 -0.65 M5.94 5.39 C7.28 3.31, 9.05 2.03, 10.41 0.28 M11.37 5.55 C11.82 3.99, 13.88 2.04, 15.65 0.39 M11.13 5.81 C12.01 4.21, 12.76 3.24, 15.37 0.64 M16.11 5.27 C17.75 3.67, 20.16 1.73, 20.57 0.42 M16.38 4.92 C18.01 3.77, 18.75 2.28, 20.61 0.47 M-0.21 4.82 C-0.21 4.82, -0.21 4.82, -0.21 4.82 M-0.21 4.82 C-0.21 4.82, -0.21 4.82, -0.21 4.82 M5.41 5.35 C4.3 4.11, 1.9 2.64, 0.1 0.3 M5.99 5.25 C4.66 4, 2.52 2.29, 0.17 0.09 M11.89 4.21 C9.82 3.05, 8.19 1.84, 7.09 0.55 M11.87 4.72 C9.48 2.62, 7.59 1.18, 6.47 -0.19 M18.72 4.66 C16.45 3.54, 13.45 0.61, 12.89 -0.79 M18.14 5.08 C17.15 3.98, 15.56 2.19, 12.26 -0.3 M21.45 2.91 C21.06 2.3, 19.84 0.89, 18.84 -0.13 M21.43 2.64 C20.49 1.59, 19.55 0.86, 18.45 0.06" stroke="#868e96" stroke-width="0.5" fill="none"></path><path d="M-0.86 -0.13 C8.23 -1.47, 12.64 -0.26, 21.12 -0.7 M0.02 0.25 C8.05 -0.46, 15.73 -0.81, 19.17 0.6 M20.18 0.02 C19.97 1.31, 20.43 2.97, 20.47 5.18 M19.97 -0.14 C19.97 1.09, 20.23 2.34, 19.76 4.86 M18.26 4.85 C13.21 6.6, 7.7 6.65, -0.31 4.97 M20.48 5.82 C12.29 5.9, 5.22 5.47, -0.3 5.15 M0.22 4.8 C-0.34 3.36, -0.35 2.6, -0.08 -0.32 M0.13 5.1 C-0.2 3.28, -0.2 1.14, 0.16 -0.09" stroke="#1864ab" stroke-width="1" fill="none"></path></g><g stroke-linecap="round"><g transform="translate(257.5131578947362 657.5350877192982) rotate(0 16.79648496112327 0.44794315744343294)"><path d="M1.09 0.12 C6.58 0.32, 28.22 0.02, 33.38 0.13 M0.21 -0.86 C5.59 -0.36, 27.81 1.79, 32.97 1.76" stroke="#000000" stroke-width="1" fill="none"></path></g></g><g stroke-linecap="round" transform="translate(305.2500000000002 710.1666666666667) rotate(0 10 2.5)"><path d="M0 0 C0 0, 0 0, 0 0 M0 0 C0 0, 0 0, 0 0 M0.33 5.47 C2.1 4.36, 3.24 2.68, 5.41 0.18 M0.26 5.72 C1.13 4.76, 2.42 3.24, 4.66 0.13 M5.66 5.63 C7.39 3.67, 8.59 2.16, 11.28 -0.45 M5.75 5.1 C7.06 3.68, 8.66 2.26, 10.43 0.23 M11.52 6.03 C11.69 3.91, 13.6 2.99, 16.21 0 M10.74 5.34 C12.27 4.14, 13.78 2.78, 15.82 0.64 M17.14 5.24 C18.35 3.78, 18.81 3.19, 20.42 0.67 M16.43 5.26 C18.03 3.71, 19.54 1.89, 20.51 0.64 M-0.21 4.82 C-0.21 4.82, -0.21 4.82, -0.21 4.82 M-0.21 4.82 C-0.21 4.82, -0.21 4.82, -0.21 4.82 M6.4 4.33 C4.59 4.39, 3.12 2.69, -0.3 -0.55 M6.53 4.76 C3.54 2.63, 1.21 1.18, -0.2 -0.4 M11.46 4.6 C9.57 2.66, 8.8 2.36, 6.71 0.46 M12.08 4.76 C10.54 4.01, 9.71 2.72, 6.6 0.36 M18.26 4.72 C17.02 3.47, 13.86 2.16, 12.69 0.23 M18.31 4.57 C16.63 3.18, 15.45 2.32, 12.07 -0.66 M21.32 2.21 C21.17 2.22, 20.31 1.27, 18.52 -0.29 M21.46 2.64 C20.74 2.01, 19.73 1.27, 18.73 -0.1" stroke="#868e96" stroke-width="0.5" fill="none"></path><path d="M-0.7 -1.53 C5.27 1.29, 14.51 -1.93, 19.64 0.38 M0.94 -0.58 C6.75 0.66, 14.32 -0.87, 20.8 -0.9 M19.95 0.46 C20.29 1.68, 20.18 2.73, 20.22 5.05 M19.77 0.05 C20.21 1.39, 19.83 3.14, 20.12 4.98 M20.43 3.76 C14.34 4.34, 8.54 6.64, -1.8 4.4 M20.72 5.63 C14.85 4.46, 11.31 5.62, 0.08 5.6 M0.25 5.26 C0.34 3.03, -0.33 1.51, 0.12 -0.38 M-0.24 4.78 C0.06 3.48, 0.14 1.61, 0.25 0.21" stroke="#1864ab" stroke-width="1" fill="none"></path></g><g stroke-linecap="round"><g transform="translate(259.17982456140317 711.7017543859649) rotate(0 16.591781796817713 0.14968264392115316)"><path d="M-0.42 -0.92 C4.96 -0.86, 25.86 0.83, 31.4 0.79 M1.56 1.22 C7.38 0.9, 28.48 -0.63, 33.6 -0.9" stroke="#000000" stroke-width="1" fill="none"></path></g></g><g stroke-linecap="round"><g transform="translate(257.5131578947362 672.5350877192981) rotate(0 12.831319098806375 -0.11040078245144969)"><path d="M-1.1 0.15 C3.09 0.34, 20.14 0.94, 24.56 0.75 M0.52 -0.82 C5.14 -0.94, 22.76 -1.08, 26.77 -0.96" stroke="#000000" stroke-width="1" fill="none"></path></g></g><g stroke-linecap="round"><g transform="translate(263.3464912280697 787.5350877192982) rotate(0 12.47758653518133 0.46820997813790655)"><path d="M-0.96 -0.61 C3.36 -0.76, 21.59 -0.85, 25.91 -0.6 M0.74 1.69 C4.94 1.66, 21.31 1.08, 25.17 0.64" stroke="#000000" stroke-width="1" fill="none"></path></g></g><g stroke-linecap="round"><g transform="translate(265.0131578947362 800.8684210526312) rotate(0 12.620788420567692 0.18536446425287068)"><path d="M0.79 1.01 C4.94 0.97, 21.24 -0.66, 25.49 -0.64 M-0.25 0.49 C3.69 0.64, 20.16 0.76, 24.53 0.58" stroke="#000000" stroke-width="1" fill="none"></path></g></g><g stroke-linecap="round"><g transform="translate(260.0131578947362 850.0350877192973) rotate(0 26.695189673613527 0.3114364298231749)"><path d="M0.82 1.2 C9.68 1.15, 44.8 -0.33, 53.6 -0.57 M-0.21 0.78 C8.52 0.9, 44.11 0.6, 53.02 0.6" stroke="#000000" stroke-width="1" fill="none"></path></g></g><g stroke-linecap="round"><g transform="translate(260.84649122806945 865.8684210526308) rotate(0 26.339107148062226 -0.5718871847558376)"><path d="M1.04 -0.26 C9.72 -0.1, 44.01 0.44, 52.56 0.53 M0.12 -1.44 C8.58 -1.61, 42.91 -1.89, 51.43 -1.38" stroke="#000000" stroke-width="1" fill="none"></path></g></g><g stroke-linecap="round"><g transform="translate(261.6798245614027 683.3684210526316) rotate(0 12.771880194091636 -0.22483687693772936)"><path d="M0.33 -1.19 C4.55 -1.45, 20.2 -0.89, 24.39 -0.79 M-0.96 0.81 C3.7 0.62, 22.24 0.41, 26.5 0.35" stroke="#000000" stroke-width="1" fill="none"></path></g></g><g stroke-linecap="round"><g transform="translate(261.6798245614027 697.5350877192982) rotate(0 9.040129678679364 -1.0968059599708226)"><path d="M0.3 -0.27 C3.22 -0.43, 13.92 -0.25, 16.98 -0.39 M-1.01 -1.45 C2.32 -1.98, 15.9 -1.64, 19.09 -1.93" stroke="#000000" stroke-width="1" fill="none"></path></g></g><g transform="translate(628.6067251461986 748.1915204678364) rotate(0 159.5 10.5)"><text x="0" y="15" font-family="Virgil, Segoe UI Emoji" font-size="16px" fill="#c92a2a" text-anchor="start" style="white-space: pre;" direction="ltr">Full template shows complete description</text></g><g transform="translate(516.1067251461986 949.4415204678362) rotate(0 99 10.5)"><text x="0" y="15" font-family="Virgil, Segoe UI Emoji" font-size="16px" fill="#c92a2a" text-anchor="start" style="white-space: pre;" direction="ltr">Excluded in full template</text></g><g transform="translate(213.60672514619864 134.4415204678363) rotate(0 38 10)"><text x="0" y="16" font-family="Cascadia, Segoe UI Emoji" font-size="16px" fill="#000000" text-anchor="start" style="white-space: pre;" direction="ltr">$ cv ...</text></g></svg>